<?xml version="1.0" encoding="UTF-8" standalone="no"?>
<!-- Created with Inkscape (http://www.inkscape.org/) -->

<svg
   width="1920"
   height="1080"
   viewBox="0 0 508 285.75"
   version="1.1"
   id="svg5"
   inkscape:version="1.1 (c68e22c387, 2021-05-23)"
   sodipodi:docname="fondo1.svg"
   inkscape:export-filename="C:\Users\Pablo Rodriguez\Desktop\Cosas\Proyectos personales de Programacion\Pagina Web\recursos\fondo2b.png"
   inkscape:export-xdpi="96"
   inkscape:export-ydpi="96"
   xmlns:inkscape="http://www.inkscape.org/namespaces/inkscape"
   xmlns:sodipodi="http://sodipodi.sourceforge.net/DTD/sodipodi-0.dtd"
   xmlns="http://www.w3.org/2000/svg"
   xmlns:svg="http://www.w3.org/2000/svg">
  <sodipodi:namedview
     id="namedview7"
     pagecolor="#ffffff"
     bordercolor="#666666"
     borderopacity="1.0"
     inkscape:pageshadow="2"
     inkscape:pageopacity="0.0"
     inkscape:pagecheckerboard="0"
     inkscape:document-units="px"
     showgrid="false"
     inkscape:zoom="0.25277778"
     inkscape:cx="336.26373"
     inkscape:cy="441.0989"
     inkscape:window-width="1366"
     inkscape:window-height="705"
     inkscape:window-x="-8"
     inkscape:window-y="-8"
     inkscape:window-maximized="1"
     inkscape:current-layer="layer2" />
  <defs
     id="defs2">
    <filter
       inkscape:collect="always"
       style="color-interpolation-filters:sRGB"
       id="filter1449"
       x="-0.19022183"
       y="-0.19488986"
       width="1.3804437"
       height="1.3897797">
      <feGaussianBlur
         inkscape:collect="always"
         stdDeviation="13.854446"
         id="feGaussianBlur1451" />
    </filter>
    <filter
       inkscape:collect="always"
       style="color-interpolation-filters:sRGB"
       id="filter1461"
       x="-0.19370155"
       y="-0.20627961"
       width="1.3874031"
       height="1.4125592">
      <feGaussianBlur
         inkscape:collect="always"
         stdDeviation="13.854446"
         id="feGaussianBlur1463" />
    </filter>
    <filter
       inkscape:collect="always"
       style="color-interpolation-filters:sRGB"
       id="filter1449-8"
       x="-0.19022183"
       y="-0.19488986"
       width="1.3804437"
       height="1.3897797">
      <feGaussianBlur
         inkscape:collect="always"
         stdDeviation="13.854446"
         id="feGaussianBlur1451-5" />
    </filter>
  </defs>
  <g
     inkscape:label="Capa 1"
     inkscape:groupmode="layer"
     id="layer1" />
  <g
     inkscape:groupmode="layer"
     id="layer2"
     inkscape:label="Capa 2">
    <path
       id="path216"
       style="mix-blend-mode:normal;fill:#005399;fill-opacity:1;stroke-width:1;paint-order:stroke markers fill;filter:url(#filter1461)"
       d="m 371.3019,9.751338 a 85.829665,80.59616 0 0 0 -85.82267,80.600247 85.829665,80.59616 0 0 0 85.83197,80.591985 85.829665,80.59616 0 0 0 85.82732,-80.59612 h -85.82991 l 85.82991,-0.0083 A 85.829665,80.59616 0 0 0 371.3019,9.751338 Z"
       transform="matrix(1.5641848,0,0,1.4904306,-129.93736,70.304849)" />
    <path
       style="fill:#feda2e;fill-opacity:1;paint-order:stroke markers fill;filter:url(#filter1449)"
       id="path218"
       sodipodi:type="arc"
       sodipodi:cx="270.65088"
       sodipodi:cy="131.79485"
       sodipodi:rx="87.399727"
       sodipodi:ry="85.306313"
       sodipodi:start="0"
       sodipodi:end="6.2830806"
       sodipodi:arc-type="slice"
       d="m 358.05061,131.79485 a 87.399727,85.306313 0 0 1 -87.39744,85.30631 87.399727,85.306313 0 0 1 -87.40202,-85.30185 87.399727,85.306313 0 0 1 87.39287,-85.310777 87.399727,85.306313 0 0 1 87.40659,85.297377 l -87.39973,0.009 z"
       transform="matrix(1.3578122,0,0,-1.3113781,136.04931,213.56452)" />
    <path
       style="fill:#feda2e;fill-opacity:1;paint-order:stroke markers fill;filter:url(#filter1449-8)"
       id="path218-8"
       sodipodi:type="arc"
       sodipodi:cx="270.65088"
       sodipodi:cy="131.79485"
       sodipodi:rx="87.399727"
       sodipodi:ry="85.306313"
       sodipodi:start="0"
       sodipodi:end="6.2830806"
       sodipodi:arc-type="slice"
       transform="matrix(0.76268841,0,0,0.71195345,112.43786,185.16305)"
       d="m 358.05061,131.79485 a 87.399727,85.306313 0 0 1 -87.39744,85.30631 87.399727,85.306313 0 0 1 -87.40202,-85.30185 87.399727,85.306313 0 0 1 87.39287,-85.310777 87.399727,85.306313 0 0 1 87.40659,85.297377 l -87.39973,0.009 z" />
  </g>
</svg>
