<?xml version="1.0" encoding="UTF-8" standalone="no"?>
<!-- Created with Inkscape (http://www.inkscape.org/) -->

<svg
   width="1920"
   height="1080"
   viewBox="0 0 508 285.75"
   version="1.1"
   id="svg5"
   inkscape:version="1.1 (c68e22c387, 2021-05-23)"
   sodipodi:docname="fondo2.svg"
   inkscape:export-filename="C:\Users\Pablo Rodriguez\Desktop\fondo1.png"
   inkscape:export-xdpi="96"
   inkscape:export-ydpi="96"
   xmlns:inkscape="http://www.inkscape.org/namespaces/inkscape"
   xmlns:sodipodi="http://sodipodi.sourceforge.net/DTD/sodipodi-0.dtd"
   xmlns="http://www.w3.org/2000/svg"
   xmlns:svg="http://www.w3.org/2000/svg">
  <sodipodi:namedview
     id="namedview7"
     pagecolor="#ffffff"
     bordercolor="#666666"
     borderopacity="1.0"
     inkscape:pageshadow="2"
     inkscape:pageopacity="0.0"
     inkscape:pagecheckerboard="0"
     inkscape:document-units="px"
     showgrid="false"
     inkscape:zoom="0.25277778"
     inkscape:cx="971.20879"
     inkscape:cy="441.0989"
     inkscape:window-width="1366"
     inkscape:window-height="705"
     inkscape:window-x="-8"
     inkscape:window-y="-8"
     inkscape:window-maximized="1"
     inkscape:current-layer="layer1" />
  <defs
     id="defs2">
    <filter
       inkscape:collect="always"
       style="color-interpolation-filters:sRGB"
       id="filter1441"
       x="-0.43543462"
       y="-0.48039915"
       width="1.8708692"
       height="1.9607983">
      <feGaussianBlur
         inkscape:collect="always"
         stdDeviation="13.854446"
         id="feGaussianBlur1443" />
    </filter>
    <filter
       inkscape:collect="always"
       style="color-interpolation-filters:sRGB"
       id="filter1445"
       x="-0.43543462"
       y="-0.48039915"
       width="1.8708692"
       height="1.9607983">
      <feGaussianBlur
         inkscape:collect="always"
         stdDeviation="13.854446"
         id="feGaussianBlur1447" />
    </filter>
    <filter
       inkscape:collect="always"
       style="color-interpolation-filters:sRGB"
       id="filter1449"
       x="-0.19022183"
       y="-0.19488986"
       width="1.3804437"
       height="1.3897797">
      <feGaussianBlur
         inkscape:collect="always"
         stdDeviation="13.854446"
         id="feGaussianBlur1451" />
    </filter>
    <filter
       inkscape:collect="always"
       style="color-interpolation-filters:sRGB"
       id="filter1453"
       x="-0.48342756"
       y="-0.51764046"
       width="1.9668551"
       height="2.0352809">
      <feGaussianBlur
         inkscape:collect="always"
         stdDeviation="13.854446"
         id="feGaussianBlur1455" />
    </filter>
    <filter
       inkscape:collect="always"
       style="color-interpolation-filters:sRGB"
       id="filter1457"
       x="-0.48342761"
       y="-0.51764042"
       width="1.9668552"
       height="2.0352808">
      <feGaussianBlur
         inkscape:collect="always"
         stdDeviation="13.854446"
         id="feGaussianBlur1459" />
    </filter>
    <filter
       inkscape:collect="always"
       style="color-interpolation-filters:sRGB"
       id="filter1461"
       x="-0.19370155"
       y="-0.20627961"
       width="1.3874031"
       height="1.4125592">
      <feGaussianBlur
         inkscape:collect="always"
         stdDeviation="13.854446"
         id="feGaussianBlur1463" />
    </filter>
    <filter
       inkscape:collect="always"
       style="color-interpolation-filters:sRGB"
       id="filter1441-6"
       x="-0.43543462"
       y="-0.48039915"
       width="1.8708692"
       height="1.9607983">
      <feGaussianBlur
         inkscape:collect="always"
         stdDeviation="13.854446"
         id="feGaussianBlur1443-6" />
    </filter>
    <filter
       inkscape:collect="always"
       style="color-interpolation-filters:sRGB"
       id="filter1457-6"
       x="-0.48342758"
       y="-0.51764046"
       width="1.9668552"
       height="2.0352809">
      <feGaussianBlur
         inkscape:collect="always"
         stdDeviation="13.854446"
         id="feGaussianBlur1459-3" />
    </filter>
    <filter
       inkscape:collect="always"
       style="color-interpolation-filters:sRGB"
       id="filter1457-6-9"
       x="-0.48342758"
       y="-0.51764046"
       width="1.9668552"
       height="2.0352809">
      <feGaussianBlur
         inkscape:collect="always"
         stdDeviation="13.854446"
         id="feGaussianBlur1459-3-6" />
    </filter>
  </defs>
  <g
     inkscape:label="Capa 1"
     inkscape:groupmode="layer"
     id="layer1">
    <path
       style="fill:#feda2e;fill-opacity:1;paint-order:stroke markers fill;filter:url(#filter1449)"
       id="path218"
       sodipodi:type="arc"
       sodipodi:cx="270.65088"
       sodipodi:cy="131.79485"
       sodipodi:rx="87.399727"
       sodipodi:ry="85.306313"
       sodipodi:start="0"
       sodipodi:end="6.2830806"
       sodipodi:arc-type="slice"
       d="m 358.05061,131.79485 a 87.399727,85.306313 0 0 1 -87.39744,85.30631 87.399727,85.306313 0 0 1 -87.40202,-85.30185 87.399727,85.306313 0 0 1 87.39287,-85.310777 87.399727,85.306313 0 0 1 87.40659,85.297377 l -87.39973,0.009 z"
       transform="matrix(1.3578122,0,0,1.3113781,-175.58188,-13.276798)" />
    <path
       style="fill:#feda2e;fill-opacity:1;paint-order:stroke markers fill;filter:url(#filter1445)"
       id="path218-8"
       sodipodi:type="arc"
       sodipodi:cx="115.09036"
       sodipodi:cy="223.14951"
       sodipodi:rx="38.181015"
       sodipodi:ry="34.607338"
       sodipodi:start="0"
       sodipodi:end="6.2830806"
       sodipodi:arc-type="slice"
       d="m 153.27138,223.14951 a 38.181015,34.607338 0 0 1 -38.18002,34.60733 38.181015,34.607338 0 0 1 -38.182012,-34.60552 38.181015,34.607338 0 0 1 38.178012,-34.60915 38.181015,34.607338 0 0 1 38.18402,34.60371 l -38.18102,0.004 z"
       transform="matrix(3.4164847,0,0,1,-107.34751,46.054945)" />
    <path
       style="fill:#feda2e;fill-opacity:1;paint-order:stroke markers fill;filter:url(#filter1441)"
       id="path218-8-2"
       sodipodi:type="arc"
       sodipodi:cx="79.194016"
       sodipodi:cy="54.029564"
       sodipodi:rx="38.181015"
       sodipodi:ry="34.607338"
       sodipodi:start="0"
       sodipodi:end="6.2830806"
       sodipodi:arc-type="slice"
       d="M 117.37503,54.029564 A 38.181015,34.607338 0 0 1 79.195015,88.636902 38.181015,34.607338 0 0 1 41.013001,54.031376 38.181015,34.607338 0 0 1 79.191017,19.422226 38.181015,34.607338 0 0 1 117.37503,54.02594 l -38.181014,0.0036 z"
       transform="matrix(2.7192093,0,0,3.1563585,-186.31655,-150.46353)" />
  </g>
  <g
     inkscape:groupmode="layer"
     id="layer2"
     inkscape:label="Capa 2">
    <path
       id="path216"
       style="mix-blend-mode:normal;fill:#005399;fill-opacity:1;stroke-width:1;paint-order:stroke markers fill;filter:url(#filter1461)"
       d="m 371.3019,9.751338 a 85.829665,80.59616 0 0 0 -85.82267,80.600247 85.829665,80.59616 0 0 0 85.83197,80.591985 85.829665,80.59616 0 0 0 85.82732,-80.59612 h -85.82991 l 85.82991,-0.0083 A 85.829665,80.59616 0 0 0 371.3019,9.751338 Z"
       transform="matrix(1.5641848,0,0,1.4904306,-130.98406,-102.40119)" />
    <path
       id="path216-3"
       style="mix-blend-mode:normal;fill:#005399;fill-opacity:1;stroke-width:0.39959;paint-order:stroke markers fill;filter:url(#filter1457)"
       d="M 25.04028,49.369395 A 34.390549,32.117553 0 0 0 -9.3474665,81.488575 34.390549,32.117553 0 0 0 25.044,113.60447 34.390549,32.117553 0 0 0 59.43361,81.486925 H 25.04296 l 34.39065,-0.003 A 34.390549,32.117553 0 0 0 25.04028,49.369395 Z" />
    <path
       style="fill:#feda2e;fill-opacity:1;paint-order:stroke markers fill;filter:url(#filter1441-6)"
       id="path218-8-2-4"
       sodipodi:type="arc"
       sodipodi:cx="436.90723"
       sodipodi:cy="227.22021"
       sodipodi:rx="38.181015"
       sodipodi:ry="34.607338"
       sodipodi:start="0"
       sodipodi:end="6.2830806"
       sodipodi:arc-type="slice"
       d="m 475.08824,227.22021 a 38.181015,34.607338 0 0 1 -38.18001,34.60734 38.181015,34.607338 0 0 1 -38.18202,-34.60552 38.181015,34.607338 0 0 1 38.17802,-34.60915 38.181015,34.607338 0 0 1 38.18401,34.60371 l -38.18101,0.004 z"
       transform="matrix(1.6857594,0,0,1.2575288,-255.12835,-141.2053)" />
    <path
       id="path216-3-4"
       style="mix-blend-mode:normal;fill:#005399;fill-opacity:1;stroke-width:0.39959;paint-order:stroke markers fill;filter:url(#filter1457-6)"
       d="m 277.40621,206.57472 a 34.390549,32.117553 0 0 0 -34.38775,32.11918 34.390549,32.117553 0 0 0 34.39147,32.11589 34.390549,32.117553 0 0 0 34.38961,-32.11754 h -34.39065 l 34.39065,-0.003 a 34.390549,32.117553 0 0 0 -34.39333,-32.11453 z"
       transform="matrix(1.3172935,0,0,1.3397488,-133.73949,-115.10875)" />
    <path
       id="path216-3-4-6"
       style="mix-blend-mode:normal;fill:#005399;fill-opacity:1;stroke-width:0.39959;paint-order:stroke markers fill;filter:url(#filter1457-6-9)"
       d="m 277.40621,206.57472 a 34.390549,32.117553 0 0 0 -34.38775,32.11918 34.390549,32.117553 0 0 0 34.39147,32.11589 34.390549,32.117553 0 0 0 34.38961,-32.11754 h -34.39065 l 34.39065,-0.003 a 34.390549,32.117553 0 0 0 -34.39333,-32.11453 z"
       transform="matrix(2.6857244,0,0,1.3397488,-236.38691,-52.878322)" />
    <path
       id="path216-3-9"
       style="mix-blend-mode:normal;fill:#005399;fill-opacity:1;stroke-width:0.39959;paint-order:stroke markers fill;filter:url(#filter1453)"
       d="m 58.534612,195.02091 a 34.390549,32.117553 0 0 0 -34.387754,32.11918 34.390549,32.117553 0 0 0 34.391474,32.11589 34.390549,32.117553 0 0 0 34.38961,-32.11754 h -34.39065 l 34.39065,-0.003 a 34.390549,32.117553 0 0 0 -34.39333,-32.11453 z"
       transform="matrix(2.0083193,0,0,2.1142462,-15.432914,-193.86864)" />
  </g>
</svg>
