<?xml version="1.0" encoding="UTF-8" standalone="no"?>
<!-- Created with Inkscape (http://www.inkscape.org/) -->

<svg
   version="1.1"
   id="svg2"
   width="1500"
   height="2000"
   viewBox="0 0 1500 2000"
   sodipodi:docname="pabloviolinbanana.svg"
   inkscape:version="1.1 (c68e22c387, 2021-05-23)"
   xmlns:inkscape="http://www.inkscape.org/namespaces/inkscape"
   xmlns:sodipodi="http://sodipodi.sourceforge.net/DTD/sodipodi-0.dtd"
   xmlns:xlink="http://www.w3.org/1999/xlink"
   xmlns="http://www.w3.org/2000/svg"
   xmlns:svg="http://www.w3.org/2000/svg">
  <defs
     id="defs6">
    <clipPath
       clipPathUnits="userSpaceOnUse"
       id="clipPath127">
      <path
         style="fill:none;stroke:#000000;stroke-width:1px;stroke-linecap:butt;stroke-linejoin:miter;stroke-opacity:1"
         d="m 1011.9048,1996.337 -4.1209,-25.641 9.6154,-32.0513 -1.3737,-27.4725 -2.2893,-29.7619 -2.2894,-14.6521 11.4469,-25.1831 11.4469,-25.1832 4.1208,-25.641 -2.7472,-9.6154 6.8681,-20.6044 v -9.6153 l -0.9157,-16.0257 0.4578,-28.3883 0.4579,-26.0989 1.8315,-45.3296 v -12.3627 l -4.1209,-30.2198 -5.4945,-32.0512 -5.0366,-24.2674 -2.2894,-13.7363 -1.8315,-13.7363 -4.5787,-16.9414 -3.663,-9.6153 -3.2052,-18.7729 -3.663,-5.0367 23.3517,-11.9047 7.326,-8.6997 16.4835,-12.3626 -2.2894,-13.2784 23.8096,14.1942 16.4835,5.9523 12.8205,5.2656 17.3993,11.9048 10.989,7.5549 11.9047,5.0366 3.892,5.2656 h 4.1208 l 5.7235,-4.3498 3.8919,-0.6868 5.4945,5.7234 9.8444,2.7473 9.8443,1.6025 6.6402,-0.9401 6.961,-3.5614 6.6372,-4.8565 4.209,-4.8565 5.0183,-3.3996 4.3709,-5.3421 5.9897,-1.1332 7.1229,-4.5328 5.6659,-3.3995 6.6372,-0.4857 8.0942,-5.6659 8.7417,-6.4753 12.6269,-6.3135 6.1515,-6.6372 1.7808,-4.209 5.3421,-6.7991 2.9139,-5.3421 3.2377,-6.1516 0.1619,-9.3892 0.9713,-4.0471 1.6188,-10.3605 -0.6475,-8.418 -0.9713,-8.7417 2.6762,-3.7134 8.9286,-9.3865 10.989,-6.8681 13.0495,-9.1575 7.326,-6.4103 8.0128,-6.8681 7.326,-5.9524 8.9286,-5.4945 4.5787,-3.4341 3.4341,-4.1208 3.9115,-7.5566 2.4282,-8.4989 2.0236,-9.1464 0.4856,-8.9845 -0.5666,-9.713 -0.4856,-6.5563 -0.6476,-6.3135 -0.9713,-5.585 -1.828,-7.014 -1.6026,-6.8681 -0.9157,-2.7472 15.7967,6.8681 15.7967,8.9286 9.6154,6.1813 13.2784,5.9524 12.1337,6.6391 14.423,8.2418 1.1447,2.0604 -4.3498,8.6997 -7.7839,15.3388 h -5.2655 l -0.229,2.7473 -0.4578,1.6025 -2.0605,0.229 1.8315,2.9762 0.229,5.4945 -3.4341,1.1446 -5.9524,-1.8315 -8.0128,-1.8315 -5.4945,-0.6868 -4.3498,2.9762 -4.5788,5.4945 -2.9762,5.0367 -1.3736,5.7234 -0.2289,7.5549 1.1446,8.6997 2.2894,5.9524 3.4341,5.4945 6.4102,5.0366 6.4103,4.1209 8.9286,3.663 8.6996,0.9157 7.555,0.229 8.4706,-2.7473 5.7235,-4.8077 6.6392,-5.9524 3.2051,-5.7234 2.2894,-3.8919 0.4579,-8.4707 -1.6026,-2.5184 -4.1209,-4.1208 -6.1813,-3.2052 -2.0604,-0.9157 -0.5724,-4.0064 -0.2289,-2.1749 1.717,-2.1749 4.1209,-1.1447 -0.5723,-3.4341 h 3.0906 l 0.4579,-2.5183 -0.5724,-1.717 -0.8012,-2.2894 4.4642,-8.9286 6.1814,-13.7363 2.6327,-1.2591 16.827,8.4707 -0.1145,-87.1108 h -2.7472 l -2.0605,4.3498 -5.0366,-0.4579 -17.8572,-8.4707 -0.2289,-4.3498 12.5916,-21.978 4.3498,-0.9158 v -2.7472 l 2.0604,-1.8315 -2.5183,-3.4341 2.2894,-2.7472 8.4707,1.8315 1.6026,0.2289 -0.9158,-58.837 -7.326,-1.8315 -6.1813,0.6868 -4.1209,4.3498 -7.326,13.2784 -5.2656,8.4707 -6.1813,7.0971 -2.9762,5.9524 4.3498,5.0366 6.1813,2.5183 -2.0604,4.8077 -5.9524,-0.4579 1.3737,2.2894 -4.3499,1.8315 2.0605,2.7473 v 4.8077 l -12.8205,21.749 -16.2546,-8.6996 -18.0861,-10.3022 -7.326,-4.8077 -10.989,-4.1209 2.9762,-7.326 3.8919,-5.7234 -0.6868,-10.0733 -0.2289,-5.7234 1.3736,-10.3022 3.2051,-9.1575 0.229,-13.2784 0.6868,-10.0733 -2.7473,-8.0128 -5.4945,-4.8077 -6.1813,-2.9762 -8.0128,-1.3736 -8.9286,3.2051 -8.2418,4.8077 -6.6391,7.555 -2.7473,4.3498 -4.3498,11.4469 -4.3498,10.5311 -1.6026,4.8077 -0.6868,5.7234 -2.0605,8.2418 -10.3021,-5.4945 -3.4341,-7.7839 -2.9762,-5.0366 -5.9524,-5.7235 -4.1209,-2.9762 -5.4945,-1.3736 -9.3864,-1.3736 -7.0971,0.4579 -1.8315,1.1447 -90.2015,-49.6795 9.3865,-21.0623 6.6392,-16.9414 5.7234,-19.68864 3.663,-18.08609 1.1447,-24.03846 -1.1447,-18.31502 -1.6025,-8.01282 -6.6392,-14.42307 -6.1813,-11.21795 -5.0367,-6.6392 -5.0366,-5.4945 -7.8984,-6.63919 -6.0668,-3.54854 -5.4945,-2.63278 -7.2115,-3.20513 -4.6933,-1.4881 -3.434,-0.57234 h -2.1749 l -6.6392,-9.61539 -5.0367,-4.92216 -5.9524,-5.1511 -12.1337,-5.72344 -5.1511,-3.20513 -6.5247,-0.80128 c 0,0 -0.9157,0.68681 -2.8617,-0.68681 -1.946,-1.37363 -4.9222,-7.78389 -4.9222,-7.78389 l -4.8077,-7.21153 -3.2051,-2.63279 -3.434,-5.26557 -4.1209,-4.69322 -5.1511,-4.69322 -4.1209,-6.06685 -4.2353,-5.03663 -5.0367,-5.38004 -6.0668,-5.38004 -4.3498,-2.51831 -6.6392,-10.07326 -5.609,-7.66941 -5.7235,-4.8077 -6.5247,-5.03663 -4.1209,-1.94597 -5.6089,-2.06044 h -4.1209 l -8.3562,-0.91575 -10.7601,-4.57875 -11.218,-5.72345 -9.38641,-3.663 -9.38645,-2.74725 -7.32601,-0.45788 -2.97619,-2.97619 -16.02564,-6.86813 -10.53113,-5.26557 -9.61539,-4.57875 -7.78388,-4.34982 -6.86813,-2.51831 0.22893,-11.44689 0.22894,-10.07326 -4.34981,-8.01282 -0.22894,-5.03663 6.63919,-3.89194 8.69964,-5.49451 6.18131,-3.89194 4.8077,-6.41026 4.12088,-8.24176 3.89194,-17.17032 -0.91575,-13.04946 0.68681,-4.34981 5.4945,-1.37363 6.18132,2.28938 -2.74725,-5.95238 -5.49451,-3.89194 -7.55494,-6.6392 -0.68681,-6.86813 10.98901,4.34982 7.55494,-1.14469 9.38645,-3.66301 -13.73626,1.60257 -6.41026,-0.68681 -5.03663,-4.57876 4.57875,-6.63919 6.6392,-2.28938 11.44688,-0.22894 -10.76007,-4.57875 0.91575,-4.80769 2.06044,-9.61539 -5.4945,-6.18132 -11.90477,-7.78388 -1.60256,-2.06044 2.74725,-4.57876 13.04945,-1.37362 4.57876,-4.80769 -7.09707,3.89194 h -9.84432 l -7.78389,-7.09707 -2.06044,-7.78388 -8.47069,-10.3022 -0.91575,-17.39927 -5.26557,-12.82051 -6.41026,-8.4707 0.68682,-13.04945 -3.20513,-11.90476 -4.12088,-6.6392 -10.11951,-9.50882 -13.27444,-7.77041 -8.09417,-9.38924 -15.86458,-15.86457 -22.01615,-21.69238 -10.03677,-9.71301 -13.92197,-10.36053 -7.44664,-3.56144 -14.89327,-6.47534 -14.89328,-4.8565 -14.89327,1.61883 -4.85651,9.06548 -11.33183,-11.00808 -9.38924,-7.12287 -10.36054,-6.47533 -13.27444,-4.85651 -8.74171,0.9713 -14.24574,1.29507 -13.59821,4.53274 -12.95067,-2.9139 -11.00807,-1.29507 -9.71301,4.8565 -14.56951,2.9139 -14.89327,3.8852 c 0,0 -7.7704,6.79911 -7.7704,8.09418 0,1.29506 -16.83588,7.7704 -16.83588,7.7704 l -7.70106,5.21388 -4.12088,5.95239 -4.80769,8.47069 -6.41026,9.15751 -8.24176,9.38645 -6.63919,3.663 -9.61539,2.74725 -6.86813,5.49451 -4.80769,9.38645 -2.74725,7.09707 v 6.41025 l -3.66301,8.01282 -16.48351,14.88095 -4.57876,9.61539 -7.78388,16.48352 -2.74725,9.15751 0.45787,12.82051 -2.74725,5.95238 -8.69963,9.61538 11.44688,-4.12088 3.20513,0.45788 v 5.95238 l -2.28938,7.32601 -5.03663,10.07326 -11.90476,5.03663 -16.48352,3.663 -3.663,2.74725 7.78388,-1.37362 13.73627,-1.8315 11.90476,-3.20513 -7.78388,12.36264 -10.07326,17.39926 -3.66301,5.03663 -8.24176,4.57876 -5.4945,2.28937 12.82051,-0.91575 -4.57875,6.41026 v 10.07326 l 2.74725,-10.53114 7.78388,-7.326 -5.4945,17.39927 -7.32601,11.44688 8.69963,-4.12088 6.86814,-8.24176 v 21.06228 l 10.53113,31.5934 -5.03663,-23.80952 6.86813,2.28938 h 6.86813 l 10.53114,-17.39927 -4.57875,27.9304 -3.20513,8.24176 9.15751,-2.28938 6.86813,5.49451 -6.86813,8.24176 -5.03663,10.07326 16.02564,-12.82052 3.663,1.37363 3.20513,4.57875 -17.39927,10.98901 -8.24176,2.28938 6.41026,7.78388 10.53114,8.69964 11.44688,-2.28938 10.07326,-6.41026 8.24176,-6.86813 -3.20513,13.27839 -8.69963,6.86813 12.82051,-5.03663 5.49451,-12.82051 1.37362,11.44689 -8.24176,10.98901 -9.1575,4.12088 13.73626,-0.45788 6.86813,-10.98901 2.74725,-12.36264 1.83151,3.20513 0.91575,9.61539 -2.28938,7.78388 -4.57876,12.82051 -19.68864,8.24176 21.06227,-4.57875 11.90476,-17.39927 2.28938,-5.95238 5.03663,0.45787 4.12088,9.61539 -2.28938,7.326 -5.95238,1.37363 -6.41025,6.41026 h -5.03663 l -5.03664,0.91575 -5.4945,4.57875 h -4.12088 l -5.49451,4.57876 -3.663,8.69963 -7.32601,0.45788 -3.89194,3.20512 -16.94139,7.78389 c 0,0 -18.77289,6.86813 -19.68864,7.78388 -0.91575,0.91575 -13.27839,6.63919 -13.27839,6.63919 l -16.94139,10.07326 -4.34982,0.68682 -6.18132,-4.57876 -6.04733,-2.4549 -7.12287,-1.61883 -8.09417,1.9426 -8.09417,3.23766 -9.38924,5.18027 -9.713,6.15157 -11.00808,7.77041 -6.7991,3.23767 -0.64753,7.44663 -4.53274,7.12287 c 0,0 2.26637,2.26637 -0.32377,2.26637 -2.59013,0 -14.89327,-1.61883 -14.89327,-1.61883 l -9.71301,0.64753 -15.5408,0.32377 -10.68431,2.9139 -12.30314,2.9139 -9.06547,3.56144 -7.12287,2.26637 -9.06547,7.44663 -15.86458,-0.32376 -7.44664,4.20896 -5.50403,2.91391 -12.30314,2.9139 -4.8565,4.53273 -2.59014,2.91391 -8.7417,2.26636 -9.38924,8.09417 -15.21704,11.00808 -12.30314,8.7417 -18.45471,15.21704 -11.00808,9.38924 -3.8852,8.09417 -3.23767,11.00807 0.9713,12.62691 0.64754,10.68431 1.29506,9.06547 1.61884,12.62691 3.8852,8.41793 8.74171,7.12287 9.06547,6.47534 13.92197,6.7991 12.95068,9.38924 13.27444,4.85651 14.5695,7.44663 11.65561,2.26637 16.18834,1.9426 19.10225,3.56144 26.22511,0.64749 11.33184,-1.94256 12.95067,-0.32377 21.04485,3.23763 8.7417,-1.295 17.15964,-8.0942 22.66368,-5.18027 27.19642,-9.713 15.21704,-6.47534 10.68431,-6.47534 3.8852,-1.29506 9.38924,1.29506 13.92197,-2.9139 8.09417,-1.9426 11.97937,-0.64753 7.77041,-4.20897 13.27444,-6.47534 0.32377,19.42601 v 11.33184 l -1.9426,7.44664 -0.64754,19.426 -1.9426,23.635 -3.56143,17.8072 v 13.9219 l -2.59014,18.4548 0.9713,18.4547 0.32377,8.7417 -4.8565,17.4834 -2.59014,25.2538 -2.9139,26.8726 -1.9426,17.8072 -1.61884,11.0081 -2.9139,35.2906 v 19.1022 l 3.8852,14.8933 5.50404,11.6556 0.9713,16.5121 1.29507,16.1883 0.9713,10.3606 -4.53274,4.209 -0.9713,3.8852 -3.23767,2.9139 -5.8278,2.2663 -1.61883,3.5615 -1.29507,19.7497 -1.61883,29.4628 -2.91391,27.5202 -3.8852,24.93 v 10.0368 l 10.03677,42.0897 2.59014,4.8565 h 6.15157 l 3.8852,1.6188 -0.32377,34.9669 3.88521,28.1677 3.8852,36.2619 4.53273,20.721 3.56144,15.2171 2.26637,17.1596 3.23767,15.5408 9.06547,36.9095 6.7991,33.6717 5.18027,19.1023 10.68431,47.9174 6.47533,15.5409 20.72108,59.2493 10.03677,37.5569 16.18834,47.9175 6.15157,17.8072 2.91391,9.3892 z"
         id="path129" />
    </clipPath>
  </defs>
  <sodipodi:namedview
     id="namedview4"
     pagecolor="#ffffff"
     bordercolor="#666666"
     borderopacity="1.0"
     inkscape:pageshadow="2"
     inkscape:pageopacity="0.0"
     inkscape:pagecheckerboard="0"
     showgrid="false"
     inkscape:zoom="0.3860803"
     inkscape:cx="720.05746"
     inkscape:cy="975.18573"
     inkscape:window-width="1360"
     inkscape:window-height="705"
     inkscape:window-x="1358"
     inkscape:window-y="-8"
     inkscape:window-maximized="1"
     inkscape:current-layer="g8" />
  <g
     inkscape:groupmode="layer"
     inkscape:label="Image"
     id="g8">
    <image
       width="1500"
       height="2000"
       preserveAspectRatio="none"
       style="image-rendering:optimizeQuality"
       xlink:href="c6f02678-a89d-4e6d-a84d-3009ef8c7160.jpg"
       id="image10"
       clip-path="url(#clipPath127)"
       inkscape:export-filename="C:\Users\Pablo Rodriguez\Desktop\pabloviolinbanana.png"
       inkscape:export-xdpi="96"
       inkscape:export-ydpi="96" />
  </g>
</svg>
